{"accessors" : [{"bufferView" : 0, "byteOffset" : 0, "componentType" : 5123, "count" : 4107, "type" : "SCALAR", "max" : [1159], "min" : [0]}, {"bufferView" : 1, "byteOffset" : 0, "componentType" : 5126, "count" : 1160, "type" : "VEC3", "max" : [0.35820895433425903, 1.0229052305221558, 0.005398052278906107], "min" : [-0.35820895433425903, 0.02290511131286621, 0.001373126171529293], "name" : "POSITION"}, {"bufferView" : 1, "byteOffset" : 12, "componentType" : 5126, "count" : 1160, "type" : "VEC3", "max" : [1.0000044107437134, 1.0000044107437134, 1.0000044107437134], "min" : [-1.0000044107437134, -1.0000044107437134, -1.0000044107437134], "name" : "NORMAL"}, {"bufferView" : 1, "byteOffset" : 24, "componentType" : 5126, "count" : 1160, "type" : "VEC2", "max" : [1, 1.7572484016418457], "min" : [0.0008288687095046043, 1.0022159814834595], "name" : "TEXCOORD_0"}, {"bufferView" : 0, "byteOffset" : 8216, "componentType" : 5123, "count" : 3576, "type" : "SCALAR", "max" : [1087], "min" : [0]}, {"bufferView" : 2, "byteOffset" : 0, "componentType" : 5126, "count" : 1088, "type" : "VEC3", "max" : [0.06820666044950485, 1.2293701171875, 0.03205162659287453], "min" : [-0.06900214403867722, 1.1182847023010254, -0.031905218958854675], "name" : "POSITION"}, {"bufferView" : 2, "byteOffset" : 12, "componentType" : 5126, "count" : 1088, "type" : "VEC3", "max" : [0.9866403937339783, 0.9999850988388062, 0.9908439517021179], "min" : [-0.9866403937339783, -0.9990167021751404, -0.9909801483154297], "name" : "NORMAL"}, {"bufferView" : 2, "byteOffset" : 24, "componentType" : 5126, "count" : 1088, "type" : "VEC2", "max" : [1.0044538974761963, 2], "min" : [-0.0044538769870996475, 0.9591346979141235], "name" : "TEXCOORD_0"}, {"bufferView" : 0, "byteOffset" : 15368, "componentType" : 5123, "count" : 7164, "type" : "SCALAR", "max" : [1700], "min" : [0]}, {"bufferView" : 3, "byteOffset" : 0, "componentType" : 5126, "count" : 1701, "type" : "VEC3", "max" : [0.024095552042126656, 1.1183339357376099, 0.04557735472917557], "min" : [-0.02497350051999092, 0.9323668479919434, -0.044764820486307144], "name" : "POSITION"}, {"bufferView" : 3, "byteOffset" : 12, "componentType" : 5126, "count" : 1701, "type" : "VEC3", "max" : [0.9997017979621887, 0.9998515844345093, 0.9889235496520996], "min" : [-0.9976580142974854, -0.9998461604118347, -0.9927594065666199], "name" : "NORMAL"}, {"bufferView" : 3, "byteOffset" : 24, "componentType" : 5126, "count" : 1701, "type" : "VEC2", "max" : [1.19272780418396, 2.7248313426971436], "min" : [-0.051431816071271896, 0.9288249015808105], "name" : "TEXCOORD_0"}], "asset" : {"generator" : "Aspose.3D 24.6.0", "version" : "2.0"}, "buffers" : [{"uri" : "data:application/octet-stream;base64,", "byteLength" : 156080}], "bufferViews" : [{"buffer" : 0, "byteOffset" : 0, "byteLength" : 29696, "target" : 34963}, {"buffer" : 0, "byteOffset" : 29700, "byteLength" : 37120, "byteStride" : 32, "target" : 34962}, {"buffer" : 0, "byteOffset" : 66824, "byteLength" : 34816, "byteStride" : 32, "target" : 34962}, {"buffer" : 0, "byteOffset" : 101644, "byteLength" : 54432, "byteStride" : 32, "target" : 34962}], "images" : [{"uri" : "data:image/jpeg;base64,"}], "materials" : [{"name" : "base", "pbrMetallicRoughness" : {"baseColorFactor" : [1, 1, 1, 1], "baseColorTexture" : {"index" : 0, "texCoord" : 0}, "metallicFactor" : 0, "roughnessFactor" : 0.5}, "emissiveFactor" : [0, 0, 0], "alphaMode" : "OPAQUE", "doubleSided" : true}, {"name" : "metal", "pbrMetallicRoughness" : {"baseColorFactor" : [0.03638001158833504, 0.03638001158833504, 0.03638001158833504, 1], "metallicFactor" : 1, "roughnessFactor" : 0.5}, "emissiveFactor" : [0, 0, 0], "alphaMode" : "OPAQUE", "doubleSided" : true}, {"name" : "metal", "pbrMetallicRoughness" : {"baseColorFactor" : [0.03638001158833504, 0.03638001158833504, 0.03638001158833504, 1], "metallicFactor" : 1, "roughnessFactor" : 0.5}, "emissiveFactor" : [0, 0, 0], "alphaMode" : "OPAQUE", "doubleSided" : true}], "meshes" : [{"primitives" : [{"attributes" : {"POSITION" : 1, "NORMAL" : 2, "TEXCOORD_0" : 3}, "indices" : 0, "material" : 0, "mode" : 4}]}, {"primitives" : [{"attributes" : {"POSITION" : 5, "NORMAL" : 6, "TEXCOORD_0" : 7}, "indices" : 4, "material" : 1, "mode" : 4}]}, {"primitives" : [{"attributes" : {"POSITION" : 9, "NORMAL" : 10, "TEXCOORD_0" : 11}, "indices" : 8, "material" : 2, "mode" : 4}]}], "nodes" : [{"mesh" : 0, "name" : "card"}, {"mesh" : 1, "name" : "clip"}, {"mesh" : 2, "name" : "clamp"}], "samplers" : [{"magFilter" : 9729, "minFilter" : 9987, "wrapS" : 10497, "wrapT" : 10497}], "scene" : 0, "scenes" : [{"nodes" : [0, 1, 2]}], "textures" : [{"sampler" : 0, "source" : 0, "name" : ""}]}