{
  "asset": {
    "version": "2.0",
    "generator": "THREE.GLTFExporter"
  },
  "scenes": [
    {
      "nodes": [
        0
      ]
    }
  ],
  "scene": 0,
  "nodes": [
    {
      "children": [
        7
      ],
      "matrix": [
        0.01,
        0,
        0,
        0,
        0,
        0.01,
        0,
        0,
        0,
        0,
        0.01,
        0,
        0,
        0,
        0,
        1
      ]
    },
    {
      "matrix": [
        1,
        0,
        0,
        0,
        0,
        1,
        0,
        0,
        0,
        0,
        1,
        0,
        -0.04825860023498535,
        -0.024129300117492702,
        0,
        1
      ],
      "name": "card",
      "mesh": 0
    },
    {
      "name": "clip",
      "mesh": 1
    },
    {
      "name": "clamp",
      "mesh": 2
    },
    {
      "matrix": [
        74.22626911056196,
        0,
        36.88738725770427,
        0,
        0,
        82.88678039816367,
        0,
        0,
        -36.88738725770427,
        0,
        74.22626911056196,
        0,
        2,
        -38,
        0,
        1
      ],
      "name": "tag (2)",
      "children": [
        1,
        2,
        3
      ]
    },
    {
      "matrix": [
        1,
        0,
        0,
        0,
        0,
        1,
        -6.123233995736766e-17,
        0,
        0,
        6.123233995736766e-17,
        1,
        0,
        0,
        6.123233995736766e-14,
        1000,
        1
      ],
      "camera": 0
    },
    {
      "matrix": [
        1,
        0,
        0,
        0,
        0,
        1,
        0,
        0,
        0,
        0,
        1,
        0,
        0,
        1,
        0,
        1
      ],
      "name": "Default Ambient Light"
    },
    {
      "name": "Scene 1",
      "children": [
        4,
        5,
        6
      ]
    }
  ],
  "bufferViews": [
    {
      "buffer": 0,
      "byteOffset": 0,
      "byteLength": 13920,
      "target": 34962,
      "byteStride": 12
    },
    {
      "buffer": 0,
      "byteOffset": 13920,
      "byteLength": 13920,
      "target": 34962,
      "byteStride": 12
    },
    {
      "buffer": 0,
      "byteOffset": 27840,
      "byteLength": 9280,
      "target": 34962,
      "byteStride": 8
    },
    {
      "buffer": 0,
      "byteOffset": 37120,
      "byteLength": 8216,
      "target": 34963
    },
    {
      "buffer": 0,
      "byteOffset": 45336,
      "byteLength": 13056,
      "target": 34962,
      "byteStride": 12
    },
    {
      "buffer": 0,
      "byteOffset": 58392,
      "byteLength": 13056,
      "target": 34962,
      "byteStride": 12
    },
    {
      "buffer": 0,
      "byteOffset": 71448,
      "byteLength": 8704,
      "target": 34962,
      "byteStride": 8
    },
    {
      "buffer": 0,
      "byteOffset": 80152,
      "byteLength": 7152,
      "target": 34963
    },
    {
      "buffer": 0,
      "byteOffset": 87304,
      "byteLength": 20412,
      "target": 34962,
      "byteStride": 12
    },
    {
      "buffer": 0,
      "byteOffset": 107716,
      "byteLength": 20412,
      "target": 34962,
      "byteStride": 12
    },
    {
      "buffer": 0,
      "byteOffset": 128128,
      "byteLength": 13608,
      "target": 34962,
      "byteStride": 8
    },
    {
      "buffer": 0,
      "byteOffset": 141736,
      "byteLength": 14328,
      "target": 34963
    }
  ],
  "buffers": [
    {
      "byteLength": 156064,
      "uri": "data:application/octet-stream;base64,"
    }
  ],
  "accessors": [
    {
      "bufferView": 0,
      "componentType": 5126,
      "count": 1160,
      "max": [
        0.35820895433425903,
        1.0229052305221558,
        0.005398052278906107
      ],
      "min": [
        -0.35820895433425903,
        0.02290511131286621,
        0.001373126171529293
      ],
      "type": "VEC3"
    },
    {
      "bufferView": 1,
      "componentType": 5126,
      "count": 1160,
      "max": [
        1,
        1,
        1
      ],
      "min": [
        -1,
        -1,
        -1
      ],
      "type": "VEC3"
    },
    {
      "bufferView": 2,
      "componentType": 5126,
      "count": 1160,
      "max": [
        1,
        0.7572484612464905
      ],
      "min": [
        0.0008288687095046043,
        0.0022159814834594727
      ],
      "type": "VEC2"
    },
    {
      "bufferView": 3,
      "componentType": 5123,
      "count": 4107,
      "max": [
        1159
      ],
      "min": [
        0
      ],
      "type": "SCALAR"
    },
    {
      "bufferView": 4,
      "componentType": 5126,
      "count": 1088,
      "max": [
        0.06820666044950485,
        1.2293701171875,
        0.03205162659287453
      ],
      "min": [
        -0.06900214403867722,
        1.1182847023010254,
        -0.031905218958854675
      ],
      "type": "VEC3"
    },
    {
      "bufferView": 5,
      "componentType": 5126,
      "count": 1088,
      "max": [
        0.9866361618041992,
        0.9999806880950928,
        0.9908397197723389
      ],
      "min": [
        -0.9866361618041992,
        -0.9990124106407166,
        -0.9909759163856506
      ],
      "type": "VEC3"
    },
    {
      "bufferView": 6,
      "componentType": 5126,
      "count": 1088,
      "max": [
        1.0044538974761963,
        1
      ],
      "min": [
        -0.0044538769870996475,
        -0.040865302085876465
      ],
      "type": "VEC2"
    },
    {
      "bufferView": 7,
      "componentType": 5123,
      "count": 3576,
      "max": [
        1087
      ],
      "min": [
        0
      ],
      "type": "SCALAR"
    },
    {
      "bufferView": 8,
      "componentType": 5126,
      "count": 1701,
      "max": [
        0.024095552042126656,
        1.1183339357376099,
        0.04557735472917557
      ],
      "min": [
        -0.02497350051999092,
        0.9323668479919434,
        -0.044764820486307144
      ],
      "type": "VEC3"
    },
    {
      "bufferView": 9,
      "componentType": 5126,
      "count": 1701,
      "max": [
        0.9996973872184753,
        0.9998471736907959,
        0.988919198513031
      ],
      "min": [
        -0.997653603553772,
        -0.9998417496681213,
        -0.9927550554275513
      ],
      "type": "VEC3"
    },
    {
      "bufferView": 10,
      "componentType": 5126,
      "count": 1701,
      "max": [
        1.19272780418396,
        1.7248313426971436
      ],
      "min": [
        -0.051431816071271896,
        -0.07117509841918945
      ],
      "type": "VEC2"
    },
    {
      "bufferView": 11,
      "componentType": 5123,
      "count": 7164,
      "max": [
        1700
      ],
      "min": [
        0
      ],
      "type": "SCALAR"
    }
  ],
  "meshes": [
    {
      "primitives": [
        {
          "mode": 4,
          "attributes": {
            "POSITION": 0,
            "NORMAL": 1,
            "TEXCOORD_0": 2
          },
          "extras": {
            "parameters": {
              "width": 0.7164179086685181,
              "height": 1.0000001192092896,
              "depth": 0.004024926107376814,
              "subdivisions": 0
            },
            "type": "NonParametricGeometry"
          },
          "indices": 3
        }
      ]
    },
    {
      "primitives": [
        {
          "mode": 4,
          "attributes": {
            "POSITION": 4,
            "NORMAL": 5,
            "TEXCOORD_0": 6
          },
          "extras": {
            "parameters": {
              "width": 0.13720880448818207,
              "height": 0.11108541488647461,
              "depth": 0.0639568455517292,
              "subdivisions": 0
            },
            "type": "NonParametricGeometry"
          },
          "indices": 7
        }
      ]
    },
    {
      "primitives": [
        {
          "mode": 4,
          "attributes": {
            "POSITION": 8,
            "NORMAL": 9,
            "TEXCOORD_0": 10
          },
          "extras": {
            "parameters": {
              "width": 0.04906905256211758,
              "height": 0.1859670877456665,
              "depth": 0.09034217521548271,
              "subdivisions": 0
            },
            "type": "NonParametricGeometry"
          },
          "indices": 11
        }
      ]
    }
  ],
  "cameras": [
    {
      "type": "orthographic",
      "orthographic": {
        "xmag": 1.028097252520826,
        "ymag": 0.5795898261086156,
        "zfar": 100000,
        "znear": 0
      }
    }
  ]
}